<mxfile host="app.diagrams.net" modified="2024-04-06T16:44:15.066Z" agent="Mozilla/5.0 (Windows NT 10.0; Win64; x64) AppleWebKit/537.36 (KHTML, like Gecko) Chrome/123.0.0.0 Safari/537.36 Edg/123.0.0.0" etag="dqLvH6hCOiOuMJFVahOs" version="24.2.2" type="github">
  <diagram name="Страница — 1" id="YA5vIW9l-9I8oXWnI1cK">
    <mxGraphModel dx="3094" dy="861" grid="1" gridSize="10" guides="1" tooltips="1" connect="1" arrows="1" fold="1" page="1" pageScale="1" pageWidth="827" pageHeight="1169" math="0" shadow="0">
      <root>
        <mxCell id="0" />
        <mxCell id="1" parent="0" />
        <mxCell id="9zENfBd5FXbKs8G1KEoR-4" value="Cycle" style="swimlane;fontStyle=1;align=center;verticalAlign=top;childLayout=stackLayout;horizontal=1;startSize=26;horizontalStack=0;resizeParent=1;resizeParentMax=0;resizeLast=0;collapsible=1;marginBottom=0;whiteSpace=wrap;html=1;" parent="1" vertex="1">
          <mxGeometry x="-1440" y="170" width="160" height="148" as="geometry" />
        </mxCell>
        <mxCell id="9zENfBd5FXbKs8G1KEoR-5" value="week&lt;div&gt;name&lt;/div&gt;&lt;div&gt;&lt;br&gt;&lt;/div&gt;" style="text;strokeColor=none;fillColor=none;align=left;verticalAlign=top;spacingLeft=4;spacingRight=4;overflow=hidden;rotatable=0;points=[[0,0.5],[1,0.5]];portConstraint=eastwest;whiteSpace=wrap;html=1;" parent="9zENfBd5FXbKs8G1KEoR-4" vertex="1">
          <mxGeometry y="26" width="160" height="44" as="geometry" />
        </mxCell>
        <mxCell id="9zENfBd5FXbKs8G1KEoR-6" value="" style="line;strokeWidth=1;fillColor=none;align=left;verticalAlign=middle;spacingTop=-1;spacingLeft=3;spacingRight=3;rotatable=0;labelPosition=right;points=[];portConstraint=eastwest;strokeColor=inherit;" parent="9zENfBd5FXbKs8G1KEoR-4" vertex="1">
          <mxGeometry y="70" width="160" height="8" as="geometry" />
        </mxCell>
        <mxCell id="9zENfBd5FXbKs8G1KEoR-7" value="+ method(type): type" style="text;strokeColor=none;fillColor=none;align=left;verticalAlign=top;spacingLeft=4;spacingRight=4;overflow=hidden;rotatable=0;points=[[0,0.5],[1,0.5]];portConstraint=eastwest;whiteSpace=wrap;html=1;" parent="9zENfBd5FXbKs8G1KEoR-4" vertex="1">
          <mxGeometry y="78" width="160" height="70" as="geometry" />
        </mxCell>
        <mxCell id="9zENfBd5FXbKs8G1KEoR-8" value="Week" style="swimlane;fontStyle=1;align=center;verticalAlign=top;childLayout=stackLayout;horizontal=1;startSize=26;horizontalStack=0;resizeParent=1;resizeParentMax=0;resizeLast=0;collapsible=1;marginBottom=0;whiteSpace=wrap;html=1;" parent="1" vertex="1">
          <mxGeometry x="-1250" y="171" width="160" height="148" as="geometry" />
        </mxCell>
        <mxCell id="9zENfBd5FXbKs8G1KEoR-9" value="day&lt;div&gt;number&lt;/div&gt;" style="text;strokeColor=none;fillColor=none;align=left;verticalAlign=top;spacingLeft=4;spacingRight=4;overflow=hidden;rotatable=0;points=[[0,0.5],[1,0.5]];portConstraint=eastwest;whiteSpace=wrap;html=1;" parent="9zENfBd5FXbKs8G1KEoR-8" vertex="1">
          <mxGeometry y="26" width="160" height="44" as="geometry" />
        </mxCell>
        <mxCell id="9zENfBd5FXbKs8G1KEoR-10" value="" style="line;strokeWidth=1;fillColor=none;align=left;verticalAlign=middle;spacingTop=-1;spacingLeft=3;spacingRight=3;rotatable=0;labelPosition=right;points=[];portConstraint=eastwest;strokeColor=inherit;" parent="9zENfBd5FXbKs8G1KEoR-8" vertex="1">
          <mxGeometry y="70" width="160" height="8" as="geometry" />
        </mxCell>
        <mxCell id="9zENfBd5FXbKs8G1KEoR-11" value="+ method(type): type" style="text;strokeColor=none;fillColor=none;align=left;verticalAlign=top;spacingLeft=4;spacingRight=4;overflow=hidden;rotatable=0;points=[[0,0.5],[1,0.5]];portConstraint=eastwest;whiteSpace=wrap;html=1;" parent="9zENfBd5FXbKs8G1KEoR-8" vertex="1">
          <mxGeometry y="78" width="160" height="70" as="geometry" />
        </mxCell>
        <mxCell id="9zENfBd5FXbKs8G1KEoR-14" value="Day" style="swimlane;fontStyle=1;align=center;verticalAlign=top;childLayout=stackLayout;horizontal=1;startSize=26;horizontalStack=0;resizeParent=1;resizeParentMax=0;resizeLast=0;collapsible=1;marginBottom=0;whiteSpace=wrap;html=1;" parent="1" vertex="1">
          <mxGeometry x="-1060" y="170" width="190" height="150" as="geometry" />
        </mxCell>
        <mxCell id="9zENfBd5FXbKs8G1KEoR-15" value="std::vector&amp;lt;Exercise&amp;gt;exercises" style="text;strokeColor=none;fillColor=none;align=left;verticalAlign=top;spacingLeft=4;spacingRight=4;overflow=hidden;rotatable=0;points=[[0,0.5],[1,0.5]];portConstraint=eastwest;whiteSpace=wrap;html=1;" parent="9zENfBd5FXbKs8G1KEoR-14" vertex="1">
          <mxGeometry y="26" width="190" height="26" as="geometry" />
        </mxCell>
        <mxCell id="9zENfBd5FXbKs8G1KEoR-16" value="" style="line;strokeWidth=1;fillColor=none;align=left;verticalAlign=middle;spacingTop=-1;spacingLeft=3;spacingRight=3;rotatable=0;labelPosition=right;points=[];portConstraint=eastwest;strokeColor=inherit;" parent="9zENfBd5FXbKs8G1KEoR-14" vertex="1">
          <mxGeometry y="52" width="190" height="8" as="geometry" />
        </mxCell>
        <mxCell id="9zENfBd5FXbKs8G1KEoR-17" value="+ method(type): type" style="text;strokeColor=none;fillColor=none;align=left;verticalAlign=top;spacingLeft=4;spacingRight=4;overflow=hidden;rotatable=0;points=[[0,0.5],[1,0.5]];portConstraint=eastwest;whiteSpace=wrap;html=1;" parent="9zENfBd5FXbKs8G1KEoR-14" vertex="1">
          <mxGeometry y="60" width="190" height="90" as="geometry" />
        </mxCell>
        <mxCell id="9zENfBd5FXbKs8G1KEoR-18" value="Exercise" style="swimlane;fontStyle=1;align=center;verticalAlign=top;childLayout=stackLayout;horizontal=1;startSize=26;horizontalStack=0;resizeParent=1;resizeParentMax=0;resizeLast=0;collapsible=1;marginBottom=0;whiteSpace=wrap;html=1;" parent="1" vertex="1">
          <mxGeometry x="-1440" y="360" width="160" height="180" as="geometry" />
        </mxCell>
        <mxCell id="9zENfBd5FXbKs8G1KEoR-19" value="&lt;div&gt;weight&lt;/div&gt;&lt;div&gt;Reeps&lt;/div&gt;&lt;div&gt;Sets&lt;/div&gt;&lt;div&gt;Complexity&lt;/div&gt;&lt;div&gt;OneRP&amp;nbsp;&lt;/div&gt;&lt;div&gt;&lt;br&gt;&lt;/div&gt;" style="text;strokeColor=none;fillColor=none;align=left;verticalAlign=top;spacingLeft=4;spacingRight=4;overflow=hidden;rotatable=0;points=[[0,0.5],[1,0.5]];portConstraint=eastwest;whiteSpace=wrap;html=1;" parent="9zENfBd5FXbKs8G1KEoR-18" vertex="1">
          <mxGeometry y="26" width="160" height="104" as="geometry" />
        </mxCell>
        <mxCell id="9zENfBd5FXbKs8G1KEoR-20" value="" style="line;strokeWidth=1;fillColor=none;align=left;verticalAlign=middle;spacingTop=-1;spacingLeft=3;spacingRight=3;rotatable=0;labelPosition=right;points=[];portConstraint=eastwest;strokeColor=inherit;" parent="9zENfBd5FXbKs8G1KEoR-18" vertex="1">
          <mxGeometry y="130" width="160" height="8" as="geometry" />
        </mxCell>
        <mxCell id="9zENfBd5FXbKs8G1KEoR-21" value="+ method(type): type" style="text;strokeColor=none;fillColor=none;align=left;verticalAlign=top;spacingLeft=4;spacingRight=4;overflow=hidden;rotatable=0;points=[[0,0.5],[1,0.5]];portConstraint=eastwest;whiteSpace=wrap;html=1;" parent="9zENfBd5FXbKs8G1KEoR-18" vertex="1">
          <mxGeometry y="138" width="160" height="42" as="geometry" />
        </mxCell>
        <mxCell id="9zENfBd5FXbKs8G1KEoR-22" value="PercentageCount" style="swimlane;fontStyle=1;align=center;verticalAlign=top;childLayout=stackLayout;horizontal=1;startSize=26;horizontalStack=0;resizeParent=1;resizeParentMax=0;resizeLast=0;collapsible=1;marginBottom=0;whiteSpace=wrap;html=1;" parent="1" vertex="1">
          <mxGeometry x="-1160" y="360" width="160" height="150" as="geometry" />
        </mxCell>
        <mxCell id="9zENfBd5FXbKs8G1KEoR-24" value="" style="line;strokeWidth=1;fillColor=none;align=left;verticalAlign=middle;spacingTop=-1;spacingLeft=3;spacingRight=3;rotatable=0;labelPosition=right;points=[];portConstraint=eastwest;strokeColor=inherit;" parent="9zENfBd5FXbKs8G1KEoR-22" vertex="1">
          <mxGeometry y="26" width="160" height="84" as="geometry" />
        </mxCell>
        <mxCell id="9zENfBd5FXbKs8G1KEoR-25" value="+ method(type): type" style="text;strokeColor=none;fillColor=none;align=left;verticalAlign=top;spacingLeft=4;spacingRight=4;overflow=hidden;rotatable=0;points=[[0,0.5],[1,0.5]];portConstraint=eastwest;whiteSpace=wrap;html=1;" parent="9zENfBd5FXbKs8G1KEoR-22" vertex="1">
          <mxGeometry y="110" width="160" height="40" as="geometry" />
        </mxCell>
        <mxCell id="9zENfBd5FXbKs8G1KEoR-39" value="Deadlift" style="swimlane;fontStyle=1;align=center;verticalAlign=top;childLayout=stackLayout;horizontal=1;startSize=26;horizontalStack=0;resizeParent=1;resizeParentMax=0;resizeLast=0;collapsible=1;marginBottom=0;whiteSpace=wrap;html=1;" parent="1" vertex="1">
          <mxGeometry x="-1450" y="610" width="160" height="220" as="geometry" />
        </mxCell>
        <mxCell id="9zENfBd5FXbKs8G1KEoR-40" value="&lt;div&gt;weight&lt;/div&gt;&lt;div&gt;Reeps&lt;/div&gt;&lt;div&gt;Sets&lt;/div&gt;&lt;div&gt;Complexity&lt;/div&gt;&lt;div&gt;OneRP&amp;nbsp;&lt;/div&gt;&lt;div&gt;&lt;br&gt;&lt;/div&gt;" style="text;strokeColor=none;fillColor=none;align=left;verticalAlign=top;spacingLeft=4;spacingRight=4;overflow=hidden;rotatable=0;points=[[0,0.5],[1,0.5]];portConstraint=eastwest;whiteSpace=wrap;html=1;" parent="9zENfBd5FXbKs8G1KEoR-39" vertex="1">
          <mxGeometry y="26" width="160" height="104" as="geometry" />
        </mxCell>
        <mxCell id="9zENfBd5FXbKs8G1KEoR-41" value="" style="line;strokeWidth=1;fillColor=none;align=left;verticalAlign=middle;spacingTop=-1;spacingLeft=3;spacingRight=3;rotatable=0;labelPosition=right;points=[];portConstraint=eastwest;strokeColor=inherit;" parent="9zENfBd5FXbKs8G1KEoR-39" vertex="1">
          <mxGeometry y="130" width="160" height="30" as="geometry" />
        </mxCell>
        <mxCell id="9zENfBd5FXbKs8G1KEoR-42" value="+ method(type): type" style="text;strokeColor=none;fillColor=none;align=left;verticalAlign=top;spacingLeft=4;spacingRight=4;overflow=hidden;rotatable=0;points=[[0,0.5],[1,0.5]];portConstraint=eastwest;whiteSpace=wrap;html=1;" parent="9zENfBd5FXbKs8G1KEoR-39" vertex="1">
          <mxGeometry y="160" width="160" height="60" as="geometry" />
        </mxCell>
        <mxCell id="9zENfBd5FXbKs8G1KEoR-43" value="Squat" style="swimlane;fontStyle=1;align=center;verticalAlign=top;childLayout=stackLayout;horizontal=1;startSize=26;horizontalStack=0;resizeParent=1;resizeParentMax=0;resizeLast=0;collapsible=1;marginBottom=0;whiteSpace=wrap;html=1;" parent="1" vertex="1">
          <mxGeometry x="-1230" y="610" width="160" height="220" as="geometry" />
        </mxCell>
        <mxCell id="9zENfBd5FXbKs8G1KEoR-44" value="&lt;div&gt;weight&lt;/div&gt;&lt;div&gt;Reeps&lt;/div&gt;&lt;div&gt;Sets&lt;/div&gt;&lt;div&gt;Complexity&lt;/div&gt;&lt;div&gt;OneRP&amp;nbsp;&lt;/div&gt;&lt;div&gt;&lt;br&gt;&lt;/div&gt;" style="text;strokeColor=none;fillColor=none;align=left;verticalAlign=top;spacingLeft=4;spacingRight=4;overflow=hidden;rotatable=0;points=[[0,0.5],[1,0.5]];portConstraint=eastwest;whiteSpace=wrap;html=1;" parent="9zENfBd5FXbKs8G1KEoR-43" vertex="1">
          <mxGeometry y="26" width="160" height="104" as="geometry" />
        </mxCell>
        <mxCell id="9zENfBd5FXbKs8G1KEoR-45" value="" style="line;strokeWidth=1;fillColor=none;align=left;verticalAlign=middle;spacingTop=-1;spacingLeft=3;spacingRight=3;rotatable=0;labelPosition=right;points=[];portConstraint=eastwest;strokeColor=inherit;" parent="9zENfBd5FXbKs8G1KEoR-43" vertex="1">
          <mxGeometry y="130" width="160" height="30" as="geometry" />
        </mxCell>
        <mxCell id="9zENfBd5FXbKs8G1KEoR-46" value="+ method(type): type" style="text;strokeColor=none;fillColor=none;align=left;verticalAlign=top;spacingLeft=4;spacingRight=4;overflow=hidden;rotatable=0;points=[[0,0.5],[1,0.5]];portConstraint=eastwest;whiteSpace=wrap;html=1;" parent="9zENfBd5FXbKs8G1KEoR-43" vertex="1">
          <mxGeometry y="160" width="160" height="60" as="geometry" />
        </mxCell>
        <mxCell id="9zENfBd5FXbKs8G1KEoR-48" value="BenchPress" style="swimlane;fontStyle=1;align=center;verticalAlign=top;childLayout=stackLayout;horizontal=1;startSize=26;horizontalStack=0;resizeParent=1;resizeParentMax=0;resizeLast=0;collapsible=1;marginBottom=0;whiteSpace=wrap;html=1;" parent="1" vertex="1">
          <mxGeometry x="-1030" y="610" width="160" height="220" as="geometry" />
        </mxCell>
        <mxCell id="9zENfBd5FXbKs8G1KEoR-49" value="&lt;div&gt;weight&lt;/div&gt;&lt;div&gt;Reeps&lt;/div&gt;&lt;div&gt;Sets&lt;/div&gt;&lt;div&gt;Complexity&lt;/div&gt;&lt;div&gt;OneRP&amp;nbsp;&lt;/div&gt;&lt;div&gt;&lt;br&gt;&lt;/div&gt;" style="text;strokeColor=none;fillColor=none;align=left;verticalAlign=top;spacingLeft=4;spacingRight=4;overflow=hidden;rotatable=0;points=[[0,0.5],[1,0.5]];portConstraint=eastwest;whiteSpace=wrap;html=1;" parent="9zENfBd5FXbKs8G1KEoR-48" vertex="1">
          <mxGeometry y="26" width="160" height="104" as="geometry" />
        </mxCell>
        <mxCell id="9zENfBd5FXbKs8G1KEoR-50" value="" style="line;strokeWidth=1;fillColor=none;align=left;verticalAlign=middle;spacingTop=-1;spacingLeft=3;spacingRight=3;rotatable=0;labelPosition=right;points=[];portConstraint=eastwest;strokeColor=inherit;" parent="9zENfBd5FXbKs8G1KEoR-48" vertex="1">
          <mxGeometry y="130" width="160" height="30" as="geometry" />
        </mxCell>
        <mxCell id="9zENfBd5FXbKs8G1KEoR-51" value="+ method(type): type" style="text;strokeColor=none;fillColor=none;align=left;verticalAlign=top;spacingLeft=4;spacingRight=4;overflow=hidden;rotatable=0;points=[[0,0.5],[1,0.5]];portConstraint=eastwest;whiteSpace=wrap;html=1;" parent="9zENfBd5FXbKs8G1KEoR-48" vertex="1">
          <mxGeometry y="160" width="160" height="60" as="geometry" />
        </mxCell>
        <mxCell id="9zENfBd5FXbKs8G1KEoR-53" value="FrontSquat" style="swimlane;fontStyle=1;align=center;verticalAlign=top;childLayout=stackLayout;horizontal=1;startSize=26;horizontalStack=0;resizeParent=1;resizeParentMax=0;resizeLast=0;collapsible=1;marginBottom=0;whiteSpace=wrap;html=1;" parent="1" vertex="1">
          <mxGeometry x="-1640" y="610" width="160" height="220" as="geometry" />
        </mxCell>
        <mxCell id="9zENfBd5FXbKs8G1KEoR-54" value="&lt;div&gt;weight&lt;/div&gt;&lt;div&gt;Reeps&lt;/div&gt;&lt;div&gt;Sets&lt;/div&gt;&lt;div&gt;Complexity&lt;/div&gt;&lt;div&gt;OneRP&amp;nbsp;&lt;/div&gt;&lt;div&gt;&lt;br&gt;&lt;/div&gt;" style="text;strokeColor=none;fillColor=none;align=left;verticalAlign=top;spacingLeft=4;spacingRight=4;overflow=hidden;rotatable=0;points=[[0,0.5],[1,0.5]];portConstraint=eastwest;whiteSpace=wrap;html=1;" parent="9zENfBd5FXbKs8G1KEoR-53" vertex="1">
          <mxGeometry y="26" width="160" height="104" as="geometry" />
        </mxCell>
        <mxCell id="9zENfBd5FXbKs8G1KEoR-55" value="" style="line;strokeWidth=1;fillColor=none;align=left;verticalAlign=middle;spacingTop=-1;spacingLeft=3;spacingRight=3;rotatable=0;labelPosition=right;points=[];portConstraint=eastwest;strokeColor=inherit;" parent="9zENfBd5FXbKs8G1KEoR-53" vertex="1">
          <mxGeometry y="130" width="160" height="30" as="geometry" />
        </mxCell>
        <mxCell id="9zENfBd5FXbKs8G1KEoR-56" value="+ method(type): type" style="text;strokeColor=none;fillColor=none;align=left;verticalAlign=top;spacingLeft=4;spacingRight=4;overflow=hidden;rotatable=0;points=[[0,0.5],[1,0.5]];portConstraint=eastwest;whiteSpace=wrap;html=1;" parent="9zENfBd5FXbKs8G1KEoR-53" vertex="1">
          <mxGeometry y="160" width="160" height="60" as="geometry" />
        </mxCell>
        <mxCell id="9zENfBd5FXbKs8G1KEoR-57" value="DumbellPress" style="swimlane;fontStyle=1;align=center;verticalAlign=top;childLayout=stackLayout;horizontal=1;startSize=26;horizontalStack=0;resizeParent=1;resizeParentMax=0;resizeLast=0;collapsible=1;marginBottom=0;whiteSpace=wrap;html=1;" parent="1" vertex="1">
          <mxGeometry x="-827" y="610" width="160" height="220" as="geometry" />
        </mxCell>
        <mxCell id="9zENfBd5FXbKs8G1KEoR-58" value="&lt;div&gt;weight&lt;/div&gt;&lt;div&gt;Reeps&lt;/div&gt;&lt;div&gt;Sets&lt;/div&gt;&lt;div&gt;Complexity&lt;/div&gt;&lt;div&gt;OneRP&amp;nbsp;&lt;/div&gt;&lt;div&gt;&lt;br&gt;&lt;/div&gt;" style="text;strokeColor=none;fillColor=none;align=left;verticalAlign=top;spacingLeft=4;spacingRight=4;overflow=hidden;rotatable=0;points=[[0,0.5],[1,0.5]];portConstraint=eastwest;whiteSpace=wrap;html=1;" parent="9zENfBd5FXbKs8G1KEoR-57" vertex="1">
          <mxGeometry y="26" width="160" height="104" as="geometry" />
        </mxCell>
        <mxCell id="9zENfBd5FXbKs8G1KEoR-59" value="" style="line;strokeWidth=1;fillColor=none;align=left;verticalAlign=middle;spacingTop=-1;spacingLeft=3;spacingRight=3;rotatable=0;labelPosition=right;points=[];portConstraint=eastwest;strokeColor=inherit;" parent="9zENfBd5FXbKs8G1KEoR-57" vertex="1">
          <mxGeometry y="130" width="160" height="30" as="geometry" />
        </mxCell>
        <mxCell id="9zENfBd5FXbKs8G1KEoR-60" value="+ method(type): type" style="text;strokeColor=none;fillColor=none;align=left;verticalAlign=top;spacingLeft=4;spacingRight=4;overflow=hidden;rotatable=0;points=[[0,0.5],[1,0.5]];portConstraint=eastwest;whiteSpace=wrap;html=1;" parent="9zENfBd5FXbKs8G1KEoR-57" vertex="1">
          <mxGeometry y="160" width="160" height="60" as="geometry" />
        </mxCell>
        <mxCell id="9zENfBd5FXbKs8G1KEoR-61" value="SkullCrushers" style="swimlane;fontStyle=1;align=center;verticalAlign=top;childLayout=stackLayout;horizontal=1;startSize=26;horizontalStack=0;resizeParent=1;resizeParentMax=0;resizeLast=0;collapsible=1;marginBottom=0;whiteSpace=wrap;html=1;" parent="1" vertex="1">
          <mxGeometry x="-630" y="610" width="160" height="220" as="geometry" />
        </mxCell>
        <mxCell id="9zENfBd5FXbKs8G1KEoR-62" value="&lt;div&gt;weight&lt;/div&gt;&lt;div&gt;Reeps&lt;/div&gt;&lt;div&gt;Sets&lt;/div&gt;&lt;div&gt;Complexity&lt;/div&gt;&lt;div&gt;OneRP&amp;nbsp;&lt;/div&gt;&lt;div&gt;&lt;br&gt;&lt;/div&gt;" style="text;strokeColor=none;fillColor=none;align=left;verticalAlign=top;spacingLeft=4;spacingRight=4;overflow=hidden;rotatable=0;points=[[0,0.5],[1,0.5]];portConstraint=eastwest;whiteSpace=wrap;html=1;" parent="9zENfBd5FXbKs8G1KEoR-61" vertex="1">
          <mxGeometry y="26" width="160" height="104" as="geometry" />
        </mxCell>
        <mxCell id="9zENfBd5FXbKs8G1KEoR-63" value="" style="line;strokeWidth=1;fillColor=none;align=left;verticalAlign=middle;spacingTop=-1;spacingLeft=3;spacingRight=3;rotatable=0;labelPosition=right;points=[];portConstraint=eastwest;strokeColor=inherit;" parent="9zENfBd5FXbKs8G1KEoR-61" vertex="1">
          <mxGeometry y="130" width="160" height="30" as="geometry" />
        </mxCell>
        <mxCell id="9zENfBd5FXbKs8G1KEoR-64" value="+ method(type): type" style="text;strokeColor=none;fillColor=none;align=left;verticalAlign=top;spacingLeft=4;spacingRight=4;overflow=hidden;rotatable=0;points=[[0,0.5],[1,0.5]];portConstraint=eastwest;whiteSpace=wrap;html=1;" parent="9zENfBd5FXbKs8G1KEoR-61" vertex="1">
          <mxGeometry y="160" width="160" height="60" as="geometry" />
        </mxCell>
        <mxCell id="9zENfBd5FXbKs8G1KEoR-65" value="BenchWithoutBridge" style="swimlane;fontStyle=1;align=center;verticalAlign=top;childLayout=stackLayout;horizontal=1;startSize=26;horizontalStack=0;resizeParent=1;resizeParentMax=0;resizeLast=0;collapsible=1;marginBottom=0;whiteSpace=wrap;html=1;" parent="1" vertex="1">
          <mxGeometry x="-1640" y="850" width="160" height="220" as="geometry" />
        </mxCell>
        <mxCell id="9zENfBd5FXbKs8G1KEoR-66" value="&lt;div&gt;weight&lt;/div&gt;&lt;div&gt;Reeps&lt;/div&gt;&lt;div&gt;Sets&lt;/div&gt;&lt;div&gt;Complexity&lt;/div&gt;&lt;div&gt;OneRP&amp;nbsp;&lt;/div&gt;&lt;div&gt;&lt;br&gt;&lt;/div&gt;" style="text;strokeColor=none;fillColor=none;align=left;verticalAlign=top;spacingLeft=4;spacingRight=4;overflow=hidden;rotatable=0;points=[[0,0.5],[1,0.5]];portConstraint=eastwest;whiteSpace=wrap;html=1;" parent="9zENfBd5FXbKs8G1KEoR-65" vertex="1">
          <mxGeometry y="26" width="160" height="104" as="geometry" />
        </mxCell>
        <mxCell id="9zENfBd5FXbKs8G1KEoR-67" value="" style="line;strokeWidth=1;fillColor=none;align=left;verticalAlign=middle;spacingTop=-1;spacingLeft=3;spacingRight=3;rotatable=0;labelPosition=right;points=[];portConstraint=eastwest;strokeColor=inherit;" parent="9zENfBd5FXbKs8G1KEoR-65" vertex="1">
          <mxGeometry y="130" width="160" height="30" as="geometry" />
        </mxCell>
        <mxCell id="9zENfBd5FXbKs8G1KEoR-68" value="+ method(type): type" style="text;strokeColor=none;fillColor=none;align=left;verticalAlign=top;spacingLeft=4;spacingRight=4;overflow=hidden;rotatable=0;points=[[0,0.5],[1,0.5]];portConstraint=eastwest;whiteSpace=wrap;html=1;" parent="9zENfBd5FXbKs8G1KEoR-65" vertex="1">
          <mxGeometry y="160" width="160" height="60" as="geometry" />
        </mxCell>
        <mxCell id="9zENfBd5FXbKs8G1KEoR-69" value="SlopesOfZehher" style="swimlane;fontStyle=1;align=center;verticalAlign=top;childLayout=stackLayout;horizontal=1;startSize=26;horizontalStack=0;resizeParent=1;resizeParentMax=0;resizeLast=0;collapsible=1;marginBottom=0;whiteSpace=wrap;html=1;" parent="1" vertex="1">
          <mxGeometry x="-1450" y="850" width="160" height="220" as="geometry" />
        </mxCell>
        <mxCell id="9zENfBd5FXbKs8G1KEoR-70" value="&lt;div&gt;weight&lt;/div&gt;&lt;div&gt;Reeps&lt;/div&gt;&lt;div&gt;Sets&lt;/div&gt;&lt;div&gt;Complexity&lt;/div&gt;&lt;div&gt;OneRP&amp;nbsp;&lt;/div&gt;&lt;div&gt;&lt;br&gt;&lt;/div&gt;" style="text;strokeColor=none;fillColor=none;align=left;verticalAlign=top;spacingLeft=4;spacingRight=4;overflow=hidden;rotatable=0;points=[[0,0.5],[1,0.5]];portConstraint=eastwest;whiteSpace=wrap;html=1;" parent="9zENfBd5FXbKs8G1KEoR-69" vertex="1">
          <mxGeometry y="26" width="160" height="104" as="geometry" />
        </mxCell>
        <mxCell id="9zENfBd5FXbKs8G1KEoR-71" value="" style="line;strokeWidth=1;fillColor=none;align=left;verticalAlign=middle;spacingTop=-1;spacingLeft=3;spacingRight=3;rotatable=0;labelPosition=right;points=[];portConstraint=eastwest;strokeColor=inherit;" parent="9zENfBd5FXbKs8G1KEoR-69" vertex="1">
          <mxGeometry y="130" width="160" height="30" as="geometry" />
        </mxCell>
        <mxCell id="9zENfBd5FXbKs8G1KEoR-72" value="+ method(type): type" style="text;strokeColor=none;fillColor=none;align=left;verticalAlign=top;spacingLeft=4;spacingRight=4;overflow=hidden;rotatable=0;points=[[0,0.5],[1,0.5]];portConstraint=eastwest;whiteSpace=wrap;html=1;" parent="9zENfBd5FXbKs8G1KEoR-69" vertex="1">
          <mxGeometry y="160" width="160" height="60" as="geometry" />
        </mxCell>
        <mxCell id="BHGopGzuXaX2ucWg6kML-1" value="OverheadPress" style="swimlane;fontStyle=1;align=center;verticalAlign=top;childLayout=stackLayout;horizontal=1;startSize=26;horizontalStack=0;resizeParent=1;resizeParentMax=0;resizeLast=0;collapsible=1;marginBottom=0;whiteSpace=wrap;html=1;" vertex="1" parent="1">
          <mxGeometry x="-1230" y="850" width="160" height="220" as="geometry" />
        </mxCell>
        <mxCell id="BHGopGzuXaX2ucWg6kML-2" value="&lt;div&gt;weight&lt;/div&gt;&lt;div&gt;Reeps&lt;/div&gt;&lt;div&gt;Sets&lt;/div&gt;&lt;div&gt;Complexity&lt;/div&gt;&lt;div&gt;OneRP&amp;nbsp;&lt;/div&gt;&lt;div&gt;&lt;br&gt;&lt;/div&gt;" style="text;strokeColor=none;fillColor=none;align=left;verticalAlign=top;spacingLeft=4;spacingRight=4;overflow=hidden;rotatable=0;points=[[0,0.5],[1,0.5]];portConstraint=eastwest;whiteSpace=wrap;html=1;" vertex="1" parent="BHGopGzuXaX2ucWg6kML-1">
          <mxGeometry y="26" width="160" height="104" as="geometry" />
        </mxCell>
        <mxCell id="BHGopGzuXaX2ucWg6kML-3" value="" style="line;strokeWidth=1;fillColor=none;align=left;verticalAlign=middle;spacingTop=-1;spacingLeft=3;spacingRight=3;rotatable=0;labelPosition=right;points=[];portConstraint=eastwest;strokeColor=inherit;" vertex="1" parent="BHGopGzuXaX2ucWg6kML-1">
          <mxGeometry y="130" width="160" height="30" as="geometry" />
        </mxCell>
        <mxCell id="BHGopGzuXaX2ucWg6kML-4" value="+ method(type): type" style="text;strokeColor=none;fillColor=none;align=left;verticalAlign=top;spacingLeft=4;spacingRight=4;overflow=hidden;rotatable=0;points=[[0,0.5],[1,0.5]];portConstraint=eastwest;whiteSpace=wrap;html=1;" vertex="1" parent="BHGopGzuXaX2ucWg6kML-1">
          <mxGeometry y="160" width="160" height="60" as="geometry" />
        </mxCell>
        <mxCell id="BHGopGzuXaX2ucWg6kML-5" value="MediumGripPress" style="swimlane;fontStyle=1;align=center;verticalAlign=top;childLayout=stackLayout;horizontal=1;startSize=26;horizontalStack=0;resizeParent=1;resizeParentMax=0;resizeLast=0;collapsible=1;marginBottom=0;whiteSpace=wrap;html=1;" vertex="1" parent="1">
          <mxGeometry x="-1030" y="850" width="160" height="220" as="geometry" />
        </mxCell>
        <mxCell id="BHGopGzuXaX2ucWg6kML-6" value="&lt;div&gt;weight&lt;/div&gt;&lt;div&gt;Reeps&lt;/div&gt;&lt;div&gt;Sets&lt;/div&gt;&lt;div&gt;Complexity&lt;/div&gt;&lt;div&gt;OneRP&amp;nbsp;&lt;/div&gt;&lt;div&gt;&lt;br&gt;&lt;/div&gt;" style="text;strokeColor=none;fillColor=none;align=left;verticalAlign=top;spacingLeft=4;spacingRight=4;overflow=hidden;rotatable=0;points=[[0,0.5],[1,0.5]];portConstraint=eastwest;whiteSpace=wrap;html=1;" vertex="1" parent="BHGopGzuXaX2ucWg6kML-5">
          <mxGeometry y="26" width="160" height="104" as="geometry" />
        </mxCell>
        <mxCell id="BHGopGzuXaX2ucWg6kML-7" value="" style="line;strokeWidth=1;fillColor=none;align=left;verticalAlign=middle;spacingTop=-1;spacingLeft=3;spacingRight=3;rotatable=0;labelPosition=right;points=[];portConstraint=eastwest;strokeColor=inherit;" vertex="1" parent="BHGopGzuXaX2ucWg6kML-5">
          <mxGeometry y="130" width="160" height="30" as="geometry" />
        </mxCell>
        <mxCell id="BHGopGzuXaX2ucWg6kML-8" value="+ method(type): type" style="text;strokeColor=none;fillColor=none;align=left;verticalAlign=top;spacingLeft=4;spacingRight=4;overflow=hidden;rotatable=0;points=[[0,0.5],[1,0.5]];portConstraint=eastwest;whiteSpace=wrap;html=1;" vertex="1" parent="BHGopGzuXaX2ucWg6kML-5">
          <mxGeometry y="160" width="160" height="60" as="geometry" />
        </mxCell>
        <mxCell id="BHGopGzuXaX2ucWg6kML-10" value="InclineBenchPress" style="swimlane;fontStyle=1;align=center;verticalAlign=top;childLayout=stackLayout;horizontal=1;startSize=26;horizontalStack=0;resizeParent=1;resizeParentMax=0;resizeLast=0;collapsible=1;marginBottom=0;whiteSpace=wrap;html=1;" vertex="1" parent="1">
          <mxGeometry x="-827" y="850" width="160" height="220" as="geometry" />
        </mxCell>
        <mxCell id="BHGopGzuXaX2ucWg6kML-11" value="&lt;div&gt;weight&lt;/div&gt;&lt;div&gt;Reeps&lt;/div&gt;&lt;div&gt;Sets&lt;/div&gt;&lt;div&gt;Complexity&lt;/div&gt;&lt;div&gt;OneRP&amp;nbsp;&lt;/div&gt;&lt;div&gt;&lt;br&gt;&lt;/div&gt;" style="text;strokeColor=none;fillColor=none;align=left;verticalAlign=top;spacingLeft=4;spacingRight=4;overflow=hidden;rotatable=0;points=[[0,0.5],[1,0.5]];portConstraint=eastwest;whiteSpace=wrap;html=1;" vertex="1" parent="BHGopGzuXaX2ucWg6kML-10">
          <mxGeometry y="26" width="160" height="104" as="geometry" />
        </mxCell>
        <mxCell id="BHGopGzuXaX2ucWg6kML-12" value="" style="line;strokeWidth=1;fillColor=none;align=left;verticalAlign=middle;spacingTop=-1;spacingLeft=3;spacingRight=3;rotatable=0;labelPosition=right;points=[];portConstraint=eastwest;strokeColor=inherit;" vertex="1" parent="BHGopGzuXaX2ucWg6kML-10">
          <mxGeometry y="130" width="160" height="30" as="geometry" />
        </mxCell>
        <mxCell id="BHGopGzuXaX2ucWg6kML-13" value="+ method(type): type" style="text;strokeColor=none;fillColor=none;align=left;verticalAlign=top;spacingLeft=4;spacingRight=4;overflow=hidden;rotatable=0;points=[[0,0.5],[1,0.5]];portConstraint=eastwest;whiteSpace=wrap;html=1;" vertex="1" parent="BHGopGzuXaX2ucWg6kML-10">
          <mxGeometry y="160" width="160" height="60" as="geometry" />
        </mxCell>
        <mxCell id="BHGopGzuXaX2ucWg6kML-14" value="StiffLegsDeadlift" style="swimlane;fontStyle=1;align=center;verticalAlign=top;childLayout=stackLayout;horizontal=1;startSize=26;horizontalStack=0;resizeParent=1;resizeParentMax=0;resizeLast=0;collapsible=1;marginBottom=0;whiteSpace=wrap;html=1;" vertex="1" parent="1">
          <mxGeometry x="-630" y="850" width="160" height="220" as="geometry" />
        </mxCell>
        <mxCell id="BHGopGzuXaX2ucWg6kML-15" value="&lt;div&gt;weight&lt;/div&gt;&lt;div&gt;Reeps&lt;/div&gt;&lt;div&gt;Sets&lt;/div&gt;&lt;div&gt;Complexity&lt;/div&gt;&lt;div&gt;OneRP&amp;nbsp;&lt;/div&gt;&lt;div&gt;&lt;br&gt;&lt;/div&gt;" style="text;strokeColor=none;fillColor=none;align=left;verticalAlign=top;spacingLeft=4;spacingRight=4;overflow=hidden;rotatable=0;points=[[0,0.5],[1,0.5]];portConstraint=eastwest;whiteSpace=wrap;html=1;" vertex="1" parent="BHGopGzuXaX2ucWg6kML-14">
          <mxGeometry y="26" width="160" height="104" as="geometry" />
        </mxCell>
        <mxCell id="BHGopGzuXaX2ucWg6kML-16" value="" style="line;strokeWidth=1;fillColor=none;align=left;verticalAlign=middle;spacingTop=-1;spacingLeft=3;spacingRight=3;rotatable=0;labelPosition=right;points=[];portConstraint=eastwest;strokeColor=inherit;" vertex="1" parent="BHGopGzuXaX2ucWg6kML-14">
          <mxGeometry y="130" width="160" height="30" as="geometry" />
        </mxCell>
        <mxCell id="BHGopGzuXaX2ucWg6kML-17" value="+ method(type): type" style="text;strokeColor=none;fillColor=none;align=left;verticalAlign=top;spacingLeft=4;spacingRight=4;overflow=hidden;rotatable=0;points=[[0,0.5],[1,0.5]];portConstraint=eastwest;whiteSpace=wrap;html=1;" vertex="1" parent="BHGopGzuXaX2ucWg6kML-14">
          <mxGeometry y="160" width="160" height="60" as="geometry" />
        </mxCell>
        <mxCell id="BHGopGzuXaX2ucWg6kML-18" value="InclineDumbellPress" style="swimlane;fontStyle=1;align=center;verticalAlign=top;childLayout=stackLayout;horizontal=1;startSize=26;horizontalStack=0;resizeParent=1;resizeParentMax=0;resizeLast=0;collapsible=1;marginBottom=0;whiteSpace=wrap;html=1;" vertex="1" parent="1">
          <mxGeometry x="-1640" y="1090" width="160" height="220" as="geometry" />
        </mxCell>
        <mxCell id="BHGopGzuXaX2ucWg6kML-19" value="&lt;div&gt;weight&lt;/div&gt;&lt;div&gt;Reeps&lt;/div&gt;&lt;div&gt;Sets&lt;/div&gt;&lt;div&gt;Complexity&lt;/div&gt;&lt;div&gt;OneRP&amp;nbsp;&lt;/div&gt;&lt;div&gt;&lt;br&gt;&lt;/div&gt;" style="text;strokeColor=none;fillColor=none;align=left;verticalAlign=top;spacingLeft=4;spacingRight=4;overflow=hidden;rotatable=0;points=[[0,0.5],[1,0.5]];portConstraint=eastwest;whiteSpace=wrap;html=1;" vertex="1" parent="BHGopGzuXaX2ucWg6kML-18">
          <mxGeometry y="26" width="160" height="104" as="geometry" />
        </mxCell>
        <mxCell id="BHGopGzuXaX2ucWg6kML-20" value="" style="line;strokeWidth=1;fillColor=none;align=left;verticalAlign=middle;spacingTop=-1;spacingLeft=3;spacingRight=3;rotatable=0;labelPosition=right;points=[];portConstraint=eastwest;strokeColor=inherit;" vertex="1" parent="BHGopGzuXaX2ucWg6kML-18">
          <mxGeometry y="130" width="160" height="30" as="geometry" />
        </mxCell>
        <mxCell id="BHGopGzuXaX2ucWg6kML-21" value="+ method(type): type" style="text;strokeColor=none;fillColor=none;align=left;verticalAlign=top;spacingLeft=4;spacingRight=4;overflow=hidden;rotatable=0;points=[[0,0.5],[1,0.5]];portConstraint=eastwest;whiteSpace=wrap;html=1;" vertex="1" parent="BHGopGzuXaX2ucWg6kML-18">
          <mxGeometry y="160" width="160" height="60" as="geometry" />
        </mxCell>
        <mxCell id="BHGopGzuXaX2ucWg6kML-22" value="Cycle" style="swimlane;fontStyle=1;align=center;verticalAlign=top;childLayout=stackLayout;horizontal=1;startSize=26;horizontalStack=0;resizeParent=1;resizeParentMax=0;resizeLast=0;collapsible=1;marginBottom=0;whiteSpace=wrap;html=1;" vertex="1" parent="1">
          <mxGeometry x="240" y="1350" width="160" height="148" as="geometry" />
        </mxCell>
        <mxCell id="BHGopGzuXaX2ucWg6kML-23" value="week&lt;div&gt;name&lt;/div&gt;&lt;div&gt;&lt;br&gt;&lt;/div&gt;" style="text;strokeColor=none;fillColor=none;align=left;verticalAlign=top;spacingLeft=4;spacingRight=4;overflow=hidden;rotatable=0;points=[[0,0.5],[1,0.5]];portConstraint=eastwest;whiteSpace=wrap;html=1;" vertex="1" parent="BHGopGzuXaX2ucWg6kML-22">
          <mxGeometry y="26" width="160" height="44" as="geometry" />
        </mxCell>
        <mxCell id="BHGopGzuXaX2ucWg6kML-24" value="" style="line;strokeWidth=1;fillColor=none;align=left;verticalAlign=middle;spacingTop=-1;spacingLeft=3;spacingRight=3;rotatable=0;labelPosition=right;points=[];portConstraint=eastwest;strokeColor=inherit;" vertex="1" parent="BHGopGzuXaX2ucWg6kML-22">
          <mxGeometry y="70" width="160" height="8" as="geometry" />
        </mxCell>
        <mxCell id="BHGopGzuXaX2ucWg6kML-25" value="+ method(type): type" style="text;strokeColor=none;fillColor=none;align=left;verticalAlign=top;spacingLeft=4;spacingRight=4;overflow=hidden;rotatable=0;points=[[0,0.5],[1,0.5]];portConstraint=eastwest;whiteSpace=wrap;html=1;" vertex="1" parent="BHGopGzuXaX2ucWg6kML-22">
          <mxGeometry y="78" width="160" height="70" as="geometry" />
        </mxCell>
        <mxCell id="BHGopGzuXaX2ucWg6kML-26" value="Week" style="swimlane;fontStyle=1;align=center;verticalAlign=top;childLayout=stackLayout;horizontal=1;startSize=26;horizontalStack=0;resizeParent=1;resizeParentMax=0;resizeLast=0;collapsible=1;marginBottom=0;whiteSpace=wrap;html=1;" vertex="1" parent="1">
          <mxGeometry x="430" y="1351" width="160" height="148" as="geometry" />
        </mxCell>
        <mxCell id="BHGopGzuXaX2ucWg6kML-27" value="day&lt;div&gt;number&lt;/div&gt;" style="text;strokeColor=none;fillColor=none;align=left;verticalAlign=top;spacingLeft=4;spacingRight=4;overflow=hidden;rotatable=0;points=[[0,0.5],[1,0.5]];portConstraint=eastwest;whiteSpace=wrap;html=1;" vertex="1" parent="BHGopGzuXaX2ucWg6kML-26">
          <mxGeometry y="26" width="160" height="44" as="geometry" />
        </mxCell>
        <mxCell id="BHGopGzuXaX2ucWg6kML-28" value="" style="line;strokeWidth=1;fillColor=none;align=left;verticalAlign=middle;spacingTop=-1;spacingLeft=3;spacingRight=3;rotatable=0;labelPosition=right;points=[];portConstraint=eastwest;strokeColor=inherit;" vertex="1" parent="BHGopGzuXaX2ucWg6kML-26">
          <mxGeometry y="70" width="160" height="8" as="geometry" />
        </mxCell>
        <mxCell id="BHGopGzuXaX2ucWg6kML-29" value="+ method(type): type" style="text;strokeColor=none;fillColor=none;align=left;verticalAlign=top;spacingLeft=4;spacingRight=4;overflow=hidden;rotatable=0;points=[[0,0.5],[1,0.5]];portConstraint=eastwest;whiteSpace=wrap;html=1;" vertex="1" parent="BHGopGzuXaX2ucWg6kML-26">
          <mxGeometry y="78" width="160" height="70" as="geometry" />
        </mxCell>
        <mxCell id="BHGopGzuXaX2ucWg6kML-30" value="Day" style="swimlane;fontStyle=1;align=center;verticalAlign=top;childLayout=stackLayout;horizontal=1;startSize=26;horizontalStack=0;resizeParent=1;resizeParentMax=0;resizeLast=0;collapsible=1;marginBottom=0;whiteSpace=wrap;html=1;" vertex="1" parent="1">
          <mxGeometry x="620" y="1350" width="190" height="150" as="geometry" />
        </mxCell>
        <mxCell id="BHGopGzuXaX2ucWg6kML-31" value="std::vector&amp;lt;Exercise&amp;gt;exercises" style="text;strokeColor=none;fillColor=none;align=left;verticalAlign=top;spacingLeft=4;spacingRight=4;overflow=hidden;rotatable=0;points=[[0,0.5],[1,0.5]];portConstraint=eastwest;whiteSpace=wrap;html=1;" vertex="1" parent="BHGopGzuXaX2ucWg6kML-30">
          <mxGeometry y="26" width="190" height="26" as="geometry" />
        </mxCell>
        <mxCell id="BHGopGzuXaX2ucWg6kML-32" value="" style="line;strokeWidth=1;fillColor=none;align=left;verticalAlign=middle;spacingTop=-1;spacingLeft=3;spacingRight=3;rotatable=0;labelPosition=right;points=[];portConstraint=eastwest;strokeColor=inherit;" vertex="1" parent="BHGopGzuXaX2ucWg6kML-30">
          <mxGeometry y="52" width="190" height="8" as="geometry" />
        </mxCell>
        <mxCell id="BHGopGzuXaX2ucWg6kML-33" value="+ method(type): type" style="text;strokeColor=none;fillColor=none;align=left;verticalAlign=top;spacingLeft=4;spacingRight=4;overflow=hidden;rotatable=0;points=[[0,0.5],[1,0.5]];portConstraint=eastwest;whiteSpace=wrap;html=1;" vertex="1" parent="BHGopGzuXaX2ucWg6kML-30">
          <mxGeometry y="60" width="190" height="90" as="geometry" />
        </mxCell>
        <mxCell id="BHGopGzuXaX2ucWg6kML-34" value="Exercise" style="swimlane;fontStyle=1;align=center;verticalAlign=top;childLayout=stackLayout;horizontal=1;startSize=26;horizontalStack=0;resizeParent=1;resizeParentMax=0;resizeLast=0;collapsible=1;marginBottom=0;whiteSpace=wrap;html=1;" vertex="1" parent="1">
          <mxGeometry x="240" y="1540" width="160" height="180" as="geometry" />
        </mxCell>
        <mxCell id="BHGopGzuXaX2ucWg6kML-35" value="&lt;div&gt;weight&lt;/div&gt;&lt;div&gt;Reeps&lt;/div&gt;&lt;div&gt;Sets&lt;/div&gt;&lt;div&gt;Complexity&lt;/div&gt;&lt;div&gt;OneRP&amp;nbsp;&lt;/div&gt;&lt;div&gt;&lt;br&gt;&lt;/div&gt;" style="text;strokeColor=none;fillColor=none;align=left;verticalAlign=top;spacingLeft=4;spacingRight=4;overflow=hidden;rotatable=0;points=[[0,0.5],[1,0.5]];portConstraint=eastwest;whiteSpace=wrap;html=1;" vertex="1" parent="BHGopGzuXaX2ucWg6kML-34">
          <mxGeometry y="26" width="160" height="104" as="geometry" />
        </mxCell>
        <mxCell id="BHGopGzuXaX2ucWg6kML-36" value="" style="line;strokeWidth=1;fillColor=none;align=left;verticalAlign=middle;spacingTop=-1;spacingLeft=3;spacingRight=3;rotatable=0;labelPosition=right;points=[];portConstraint=eastwest;strokeColor=inherit;" vertex="1" parent="BHGopGzuXaX2ucWg6kML-34">
          <mxGeometry y="130" width="160" height="8" as="geometry" />
        </mxCell>
        <mxCell id="BHGopGzuXaX2ucWg6kML-37" value="+ method(type): type" style="text;strokeColor=none;fillColor=none;align=left;verticalAlign=top;spacingLeft=4;spacingRight=4;overflow=hidden;rotatable=0;points=[[0,0.5],[1,0.5]];portConstraint=eastwest;whiteSpace=wrap;html=1;" vertex="1" parent="BHGopGzuXaX2ucWg6kML-34">
          <mxGeometry y="138" width="160" height="42" as="geometry" />
        </mxCell>
        <mxCell id="BHGopGzuXaX2ucWg6kML-38" value="PercentageCount" style="swimlane;fontStyle=1;align=center;verticalAlign=top;childLayout=stackLayout;horizontal=1;startSize=26;horizontalStack=0;resizeParent=1;resizeParentMax=0;resizeLast=0;collapsible=1;marginBottom=0;whiteSpace=wrap;html=1;" vertex="1" parent="1">
          <mxGeometry x="490" y="1540" width="160" height="150" as="geometry" />
        </mxCell>
        <mxCell id="BHGopGzuXaX2ucWg6kML-39" value="" style="line;strokeWidth=1;fillColor=none;align=left;verticalAlign=middle;spacingTop=-1;spacingLeft=3;spacingRight=3;rotatable=0;labelPosition=right;points=[];portConstraint=eastwest;strokeColor=inherit;" vertex="1" parent="BHGopGzuXaX2ucWg6kML-38">
          <mxGeometry y="26" width="160" height="84" as="geometry" />
        </mxCell>
        <mxCell id="BHGopGzuXaX2ucWg6kML-40" value="+ method(type): type" style="text;strokeColor=none;fillColor=none;align=left;verticalAlign=top;spacingLeft=4;spacingRight=4;overflow=hidden;rotatable=0;points=[[0,0.5],[1,0.5]];portConstraint=eastwest;whiteSpace=wrap;html=1;" vertex="1" parent="BHGopGzuXaX2ucWg6kML-38">
          <mxGeometry y="110" width="160" height="40" as="geometry" />
        </mxCell>
        <mxCell id="BHGopGzuXaX2ucWg6kML-41" value="" style="endArrow=none;html=1;edgeStyle=orthogonalEdgeStyle;rounded=0;exitX=1;exitY=0.5;exitDx=0;exitDy=0;" edge="1" parent="1">
          <mxGeometry relative="1" as="geometry">
            <mxPoint x="403.5999999999999" y="1608" as="sourcePoint" />
            <mxPoint x="480" y="1610" as="targetPoint" />
            <Array as="points">
              <mxPoint x="404" y="1610" />
              <mxPoint x="480" y="1610" />
              <mxPoint x="480" y="1608" />
            </Array>
          </mxGeometry>
        </mxCell>
        <mxCell id="BHGopGzuXaX2ucWg6kML-42" value="parent" style="edgeLabel;resizable=0;html=1;align=left;verticalAlign=bottom;" connectable="0" vertex="1" parent="BHGopGzuXaX2ucWg6kML-41">
          <mxGeometry x="-1" relative="1" as="geometry" />
        </mxCell>
        <mxCell id="BHGopGzuXaX2ucWg6kML-43" value="child" style="edgeLabel;resizable=0;html=1;align=right;verticalAlign=bottom;" connectable="0" vertex="1" parent="BHGopGzuXaX2ucWg6kML-41">
          <mxGeometry x="1" relative="1" as="geometry">
            <mxPoint x="10" as="offset" />
          </mxGeometry>
        </mxCell>
        <mxCell id="BHGopGzuXaX2ucWg6kML-44" value="Deadlift" style="swimlane;fontStyle=1;align=center;verticalAlign=top;childLayout=stackLayout;horizontal=1;startSize=26;horizontalStack=0;resizeParent=1;resizeParentMax=0;resizeLast=0;collapsible=1;marginBottom=0;whiteSpace=wrap;html=1;" vertex="1" parent="1">
          <mxGeometry x="230" y="1790" width="160" height="220" as="geometry" />
        </mxCell>
        <mxCell id="BHGopGzuXaX2ucWg6kML-45" value="&lt;div&gt;weight&lt;/div&gt;&lt;div&gt;Reeps&lt;/div&gt;&lt;div&gt;Sets&lt;/div&gt;&lt;div&gt;Complexity&lt;/div&gt;&lt;div&gt;OneRP&amp;nbsp;&lt;/div&gt;&lt;div&gt;&lt;br&gt;&lt;/div&gt;" style="text;strokeColor=none;fillColor=none;align=left;verticalAlign=top;spacingLeft=4;spacingRight=4;overflow=hidden;rotatable=0;points=[[0,0.5],[1,0.5]];portConstraint=eastwest;whiteSpace=wrap;html=1;" vertex="1" parent="BHGopGzuXaX2ucWg6kML-44">
          <mxGeometry y="26" width="160" height="104" as="geometry" />
        </mxCell>
        <mxCell id="BHGopGzuXaX2ucWg6kML-46" value="" style="line;strokeWidth=1;fillColor=none;align=left;verticalAlign=middle;spacingTop=-1;spacingLeft=3;spacingRight=3;rotatable=0;labelPosition=right;points=[];portConstraint=eastwest;strokeColor=inherit;" vertex="1" parent="BHGopGzuXaX2ucWg6kML-44">
          <mxGeometry y="130" width="160" height="30" as="geometry" />
        </mxCell>
        <mxCell id="BHGopGzuXaX2ucWg6kML-47" value="+ method(type): type" style="text;strokeColor=none;fillColor=none;align=left;verticalAlign=top;spacingLeft=4;spacingRight=4;overflow=hidden;rotatable=0;points=[[0,0.5],[1,0.5]];portConstraint=eastwest;whiteSpace=wrap;html=1;" vertex="1" parent="BHGopGzuXaX2ucWg6kML-44">
          <mxGeometry y="160" width="160" height="60" as="geometry" />
        </mxCell>
        <mxCell id="BHGopGzuXaX2ucWg6kML-48" value="Squat" style="swimlane;fontStyle=1;align=center;verticalAlign=top;childLayout=stackLayout;horizontal=1;startSize=26;horizontalStack=0;resizeParent=1;resizeParentMax=0;resizeLast=0;collapsible=1;marginBottom=0;whiteSpace=wrap;html=1;" vertex="1" parent="1">
          <mxGeometry x="450" y="1790" width="160" height="220" as="geometry" />
        </mxCell>
        <mxCell id="BHGopGzuXaX2ucWg6kML-49" value="&lt;div&gt;weight&lt;/div&gt;&lt;div&gt;Reeps&lt;/div&gt;&lt;div&gt;Sets&lt;/div&gt;&lt;div&gt;Complexity&lt;/div&gt;&lt;div&gt;OneRP&amp;nbsp;&lt;/div&gt;&lt;div&gt;&lt;br&gt;&lt;/div&gt;" style="text;strokeColor=none;fillColor=none;align=left;verticalAlign=top;spacingLeft=4;spacingRight=4;overflow=hidden;rotatable=0;points=[[0,0.5],[1,0.5]];portConstraint=eastwest;whiteSpace=wrap;html=1;" vertex="1" parent="BHGopGzuXaX2ucWg6kML-48">
          <mxGeometry y="26" width="160" height="104" as="geometry" />
        </mxCell>
        <mxCell id="BHGopGzuXaX2ucWg6kML-50" value="" style="line;strokeWidth=1;fillColor=none;align=left;verticalAlign=middle;spacingTop=-1;spacingLeft=3;spacingRight=3;rotatable=0;labelPosition=right;points=[];portConstraint=eastwest;strokeColor=inherit;" vertex="1" parent="BHGopGzuXaX2ucWg6kML-48">
          <mxGeometry y="130" width="160" height="30" as="geometry" />
        </mxCell>
        <mxCell id="BHGopGzuXaX2ucWg6kML-51" value="+ method(type): type" style="text;strokeColor=none;fillColor=none;align=left;verticalAlign=top;spacingLeft=4;spacingRight=4;overflow=hidden;rotatable=0;points=[[0,0.5],[1,0.5]];portConstraint=eastwest;whiteSpace=wrap;html=1;" vertex="1" parent="BHGopGzuXaX2ucWg6kML-48">
          <mxGeometry y="160" width="160" height="60" as="geometry" />
        </mxCell>
        <mxCell id="BHGopGzuXaX2ucWg6kML-52" value="BenchPress" style="swimlane;fontStyle=1;align=center;verticalAlign=top;childLayout=stackLayout;horizontal=1;startSize=26;horizontalStack=0;resizeParent=1;resizeParentMax=0;resizeLast=0;collapsible=1;marginBottom=0;whiteSpace=wrap;html=1;" vertex="1" parent="1">
          <mxGeometry x="650" y="1790" width="160" height="220" as="geometry" />
        </mxCell>
        <mxCell id="BHGopGzuXaX2ucWg6kML-53" value="&lt;div&gt;weight&lt;/div&gt;&lt;div&gt;Reeps&lt;/div&gt;&lt;div&gt;Sets&lt;/div&gt;&lt;div&gt;Complexity&lt;/div&gt;&lt;div&gt;OneRP&amp;nbsp;&lt;/div&gt;&lt;div&gt;&lt;br&gt;&lt;/div&gt;" style="text;strokeColor=none;fillColor=none;align=left;verticalAlign=top;spacingLeft=4;spacingRight=4;overflow=hidden;rotatable=0;points=[[0,0.5],[1,0.5]];portConstraint=eastwest;whiteSpace=wrap;html=1;" vertex="1" parent="BHGopGzuXaX2ucWg6kML-52">
          <mxGeometry y="26" width="160" height="104" as="geometry" />
        </mxCell>
        <mxCell id="BHGopGzuXaX2ucWg6kML-54" value="" style="line;strokeWidth=1;fillColor=none;align=left;verticalAlign=middle;spacingTop=-1;spacingLeft=3;spacingRight=3;rotatable=0;labelPosition=right;points=[];portConstraint=eastwest;strokeColor=inherit;" vertex="1" parent="BHGopGzuXaX2ucWg6kML-52">
          <mxGeometry y="130" width="160" height="30" as="geometry" />
        </mxCell>
        <mxCell id="BHGopGzuXaX2ucWg6kML-55" value="+ method(type): type" style="text;strokeColor=none;fillColor=none;align=left;verticalAlign=top;spacingLeft=4;spacingRight=4;overflow=hidden;rotatable=0;points=[[0,0.5],[1,0.5]];portConstraint=eastwest;whiteSpace=wrap;html=1;" vertex="1" parent="BHGopGzuXaX2ucWg6kML-52">
          <mxGeometry y="160" width="160" height="60" as="geometry" />
        </mxCell>
        <mxCell id="BHGopGzuXaX2ucWg6kML-56" value="FrontSquat" style="swimlane;fontStyle=1;align=center;verticalAlign=top;childLayout=stackLayout;horizontal=1;startSize=26;horizontalStack=0;resizeParent=1;resizeParentMax=0;resizeLast=0;collapsible=1;marginBottom=0;whiteSpace=wrap;html=1;" vertex="1" parent="1">
          <mxGeometry x="40" y="1790" width="160" height="220" as="geometry" />
        </mxCell>
        <mxCell id="BHGopGzuXaX2ucWg6kML-57" value="&lt;div&gt;weight&lt;/div&gt;&lt;div&gt;Reeps&lt;/div&gt;&lt;div&gt;Sets&lt;/div&gt;&lt;div&gt;Complexity&lt;/div&gt;&lt;div&gt;OneRP&amp;nbsp;&lt;/div&gt;&lt;div&gt;&lt;br&gt;&lt;/div&gt;" style="text;strokeColor=none;fillColor=none;align=left;verticalAlign=top;spacingLeft=4;spacingRight=4;overflow=hidden;rotatable=0;points=[[0,0.5],[1,0.5]];portConstraint=eastwest;whiteSpace=wrap;html=1;" vertex="1" parent="BHGopGzuXaX2ucWg6kML-56">
          <mxGeometry y="26" width="160" height="104" as="geometry" />
        </mxCell>
        <mxCell id="BHGopGzuXaX2ucWg6kML-58" value="" style="line;strokeWidth=1;fillColor=none;align=left;verticalAlign=middle;spacingTop=-1;spacingLeft=3;spacingRight=3;rotatable=0;labelPosition=right;points=[];portConstraint=eastwest;strokeColor=inherit;" vertex="1" parent="BHGopGzuXaX2ucWg6kML-56">
          <mxGeometry y="130" width="160" height="30" as="geometry" />
        </mxCell>
        <mxCell id="BHGopGzuXaX2ucWg6kML-59" value="+ method(type): type" style="text;strokeColor=none;fillColor=none;align=left;verticalAlign=top;spacingLeft=4;spacingRight=4;overflow=hidden;rotatable=0;points=[[0,0.5],[1,0.5]];portConstraint=eastwest;whiteSpace=wrap;html=1;" vertex="1" parent="BHGopGzuXaX2ucWg6kML-56">
          <mxGeometry y="160" width="160" height="60" as="geometry" />
        </mxCell>
        <mxCell id="BHGopGzuXaX2ucWg6kML-60" value="DumbellPress" style="swimlane;fontStyle=1;align=center;verticalAlign=top;childLayout=stackLayout;horizontal=1;startSize=26;horizontalStack=0;resizeParent=1;resizeParentMax=0;resizeLast=0;collapsible=1;marginBottom=0;whiteSpace=wrap;html=1;" vertex="1" parent="1">
          <mxGeometry x="853" y="1790" width="160" height="220" as="geometry" />
        </mxCell>
        <mxCell id="BHGopGzuXaX2ucWg6kML-61" value="&lt;div&gt;weight&lt;/div&gt;&lt;div&gt;Reeps&lt;/div&gt;&lt;div&gt;Sets&lt;/div&gt;&lt;div&gt;Complexity&lt;/div&gt;&lt;div&gt;OneRP&amp;nbsp;&lt;/div&gt;&lt;div&gt;&lt;br&gt;&lt;/div&gt;" style="text;strokeColor=none;fillColor=none;align=left;verticalAlign=top;spacingLeft=4;spacingRight=4;overflow=hidden;rotatable=0;points=[[0,0.5],[1,0.5]];portConstraint=eastwest;whiteSpace=wrap;html=1;" vertex="1" parent="BHGopGzuXaX2ucWg6kML-60">
          <mxGeometry y="26" width="160" height="104" as="geometry" />
        </mxCell>
        <mxCell id="BHGopGzuXaX2ucWg6kML-62" value="" style="line;strokeWidth=1;fillColor=none;align=left;verticalAlign=middle;spacingTop=-1;spacingLeft=3;spacingRight=3;rotatable=0;labelPosition=right;points=[];portConstraint=eastwest;strokeColor=inherit;" vertex="1" parent="BHGopGzuXaX2ucWg6kML-60">
          <mxGeometry y="130" width="160" height="30" as="geometry" />
        </mxCell>
        <mxCell id="BHGopGzuXaX2ucWg6kML-63" value="+ method(type): type" style="text;strokeColor=none;fillColor=none;align=left;verticalAlign=top;spacingLeft=4;spacingRight=4;overflow=hidden;rotatable=0;points=[[0,0.5],[1,0.5]];portConstraint=eastwest;whiteSpace=wrap;html=1;" vertex="1" parent="BHGopGzuXaX2ucWg6kML-60">
          <mxGeometry y="160" width="160" height="60" as="geometry" />
        </mxCell>
        <mxCell id="BHGopGzuXaX2ucWg6kML-64" value="SkullCrushers" style="swimlane;fontStyle=1;align=center;verticalAlign=top;childLayout=stackLayout;horizontal=1;startSize=26;horizontalStack=0;resizeParent=1;resizeParentMax=0;resizeLast=0;collapsible=1;marginBottom=0;whiteSpace=wrap;html=1;" vertex="1" parent="1">
          <mxGeometry x="1050" y="1790" width="160" height="220" as="geometry" />
        </mxCell>
        <mxCell id="BHGopGzuXaX2ucWg6kML-65" value="&lt;div&gt;weight&lt;/div&gt;&lt;div&gt;Reeps&lt;/div&gt;&lt;div&gt;Sets&lt;/div&gt;&lt;div&gt;Complexity&lt;/div&gt;&lt;div&gt;OneRP&amp;nbsp;&lt;/div&gt;&lt;div&gt;&lt;br&gt;&lt;/div&gt;" style="text;strokeColor=none;fillColor=none;align=left;verticalAlign=top;spacingLeft=4;spacingRight=4;overflow=hidden;rotatable=0;points=[[0,0.5],[1,0.5]];portConstraint=eastwest;whiteSpace=wrap;html=1;" vertex="1" parent="BHGopGzuXaX2ucWg6kML-64">
          <mxGeometry y="26" width="160" height="104" as="geometry" />
        </mxCell>
        <mxCell id="BHGopGzuXaX2ucWg6kML-66" value="" style="line;strokeWidth=1;fillColor=none;align=left;verticalAlign=middle;spacingTop=-1;spacingLeft=3;spacingRight=3;rotatable=0;labelPosition=right;points=[];portConstraint=eastwest;strokeColor=inherit;" vertex="1" parent="BHGopGzuXaX2ucWg6kML-64">
          <mxGeometry y="130" width="160" height="30" as="geometry" />
        </mxCell>
        <mxCell id="BHGopGzuXaX2ucWg6kML-67" value="+ method(type): type" style="text;strokeColor=none;fillColor=none;align=left;verticalAlign=top;spacingLeft=4;spacingRight=4;overflow=hidden;rotatable=0;points=[[0,0.5],[1,0.5]];portConstraint=eastwest;whiteSpace=wrap;html=1;" vertex="1" parent="BHGopGzuXaX2ucWg6kML-64">
          <mxGeometry y="160" width="160" height="60" as="geometry" />
        </mxCell>
        <mxCell id="BHGopGzuXaX2ucWg6kML-68" value="BenchWithoutBridge" style="swimlane;fontStyle=1;align=center;verticalAlign=top;childLayout=stackLayout;horizontal=1;startSize=26;horizontalStack=0;resizeParent=1;resizeParentMax=0;resizeLast=0;collapsible=1;marginBottom=0;whiteSpace=wrap;html=1;" vertex="1" parent="1">
          <mxGeometry x="40" y="2030" width="160" height="220" as="geometry" />
        </mxCell>
        <mxCell id="BHGopGzuXaX2ucWg6kML-69" value="&lt;div&gt;weight&lt;/div&gt;&lt;div&gt;Reeps&lt;/div&gt;&lt;div&gt;Sets&lt;/div&gt;&lt;div&gt;Complexity&lt;/div&gt;&lt;div&gt;OneRP&amp;nbsp;&lt;/div&gt;&lt;div&gt;&lt;br&gt;&lt;/div&gt;" style="text;strokeColor=none;fillColor=none;align=left;verticalAlign=top;spacingLeft=4;spacingRight=4;overflow=hidden;rotatable=0;points=[[0,0.5],[1,0.5]];portConstraint=eastwest;whiteSpace=wrap;html=1;" vertex="1" parent="BHGopGzuXaX2ucWg6kML-68">
          <mxGeometry y="26" width="160" height="104" as="geometry" />
        </mxCell>
        <mxCell id="BHGopGzuXaX2ucWg6kML-70" value="" style="line;strokeWidth=1;fillColor=none;align=left;verticalAlign=middle;spacingTop=-1;spacingLeft=3;spacingRight=3;rotatable=0;labelPosition=right;points=[];portConstraint=eastwest;strokeColor=inherit;" vertex="1" parent="BHGopGzuXaX2ucWg6kML-68">
          <mxGeometry y="130" width="160" height="30" as="geometry" />
        </mxCell>
        <mxCell id="BHGopGzuXaX2ucWg6kML-71" value="+ method(type): type" style="text;strokeColor=none;fillColor=none;align=left;verticalAlign=top;spacingLeft=4;spacingRight=4;overflow=hidden;rotatable=0;points=[[0,0.5],[1,0.5]];portConstraint=eastwest;whiteSpace=wrap;html=1;" vertex="1" parent="BHGopGzuXaX2ucWg6kML-68">
          <mxGeometry y="160" width="160" height="60" as="geometry" />
        </mxCell>
        <mxCell id="BHGopGzuXaX2ucWg6kML-72" value="SlopesOfZehher" style="swimlane;fontStyle=1;align=center;verticalAlign=top;childLayout=stackLayout;horizontal=1;startSize=26;horizontalStack=0;resizeParent=1;resizeParentMax=0;resizeLast=0;collapsible=1;marginBottom=0;whiteSpace=wrap;html=1;" vertex="1" parent="1">
          <mxGeometry x="230" y="2030" width="160" height="220" as="geometry" />
        </mxCell>
        <mxCell id="BHGopGzuXaX2ucWg6kML-73" value="&lt;div&gt;weight&lt;/div&gt;&lt;div&gt;Reeps&lt;/div&gt;&lt;div&gt;Sets&lt;/div&gt;&lt;div&gt;Complexity&lt;/div&gt;&lt;div&gt;OneRP&amp;nbsp;&lt;/div&gt;&lt;div&gt;&lt;br&gt;&lt;/div&gt;" style="text;strokeColor=none;fillColor=none;align=left;verticalAlign=top;spacingLeft=4;spacingRight=4;overflow=hidden;rotatable=0;points=[[0,0.5],[1,0.5]];portConstraint=eastwest;whiteSpace=wrap;html=1;" vertex="1" parent="BHGopGzuXaX2ucWg6kML-72">
          <mxGeometry y="26" width="160" height="104" as="geometry" />
        </mxCell>
        <mxCell id="BHGopGzuXaX2ucWg6kML-74" value="" style="line;strokeWidth=1;fillColor=none;align=left;verticalAlign=middle;spacingTop=-1;spacingLeft=3;spacingRight=3;rotatable=0;labelPosition=right;points=[];portConstraint=eastwest;strokeColor=inherit;" vertex="1" parent="BHGopGzuXaX2ucWg6kML-72">
          <mxGeometry y="130" width="160" height="30" as="geometry" />
        </mxCell>
        <mxCell id="BHGopGzuXaX2ucWg6kML-75" value="+ method(type): type" style="text;strokeColor=none;fillColor=none;align=left;verticalAlign=top;spacingLeft=4;spacingRight=4;overflow=hidden;rotatable=0;points=[[0,0.5],[1,0.5]];portConstraint=eastwest;whiteSpace=wrap;html=1;" vertex="1" parent="BHGopGzuXaX2ucWg6kML-72">
          <mxGeometry y="160" width="160" height="60" as="geometry" />
        </mxCell>
        <mxCell id="BHGopGzuXaX2ucWg6kML-76" value="OverheadPress" style="swimlane;fontStyle=1;align=center;verticalAlign=top;childLayout=stackLayout;horizontal=1;startSize=26;horizontalStack=0;resizeParent=1;resizeParentMax=0;resizeLast=0;collapsible=1;marginBottom=0;whiteSpace=wrap;html=1;" vertex="1" parent="1">
          <mxGeometry x="450" y="2030" width="160" height="220" as="geometry" />
        </mxCell>
        <mxCell id="BHGopGzuXaX2ucWg6kML-77" value="&lt;div&gt;weight&lt;/div&gt;&lt;div&gt;Reeps&lt;/div&gt;&lt;div&gt;Sets&lt;/div&gt;&lt;div&gt;Complexity&lt;/div&gt;&lt;div&gt;OneRP&amp;nbsp;&lt;/div&gt;&lt;div&gt;&lt;br&gt;&lt;/div&gt;" style="text;strokeColor=none;fillColor=none;align=left;verticalAlign=top;spacingLeft=4;spacingRight=4;overflow=hidden;rotatable=0;points=[[0,0.5],[1,0.5]];portConstraint=eastwest;whiteSpace=wrap;html=1;" vertex="1" parent="BHGopGzuXaX2ucWg6kML-76">
          <mxGeometry y="26" width="160" height="104" as="geometry" />
        </mxCell>
        <mxCell id="BHGopGzuXaX2ucWg6kML-78" value="" style="line;strokeWidth=1;fillColor=none;align=left;verticalAlign=middle;spacingTop=-1;spacingLeft=3;spacingRight=3;rotatable=0;labelPosition=right;points=[];portConstraint=eastwest;strokeColor=inherit;" vertex="1" parent="BHGopGzuXaX2ucWg6kML-76">
          <mxGeometry y="130" width="160" height="30" as="geometry" />
        </mxCell>
        <mxCell id="BHGopGzuXaX2ucWg6kML-79" value="+ method(type): type" style="text;strokeColor=none;fillColor=none;align=left;verticalAlign=top;spacingLeft=4;spacingRight=4;overflow=hidden;rotatable=0;points=[[0,0.5],[1,0.5]];portConstraint=eastwest;whiteSpace=wrap;html=1;" vertex="1" parent="BHGopGzuXaX2ucWg6kML-76">
          <mxGeometry y="160" width="160" height="60" as="geometry" />
        </mxCell>
        <mxCell id="BHGopGzuXaX2ucWg6kML-80" value="MediumGripPress" style="swimlane;fontStyle=1;align=center;verticalAlign=top;childLayout=stackLayout;horizontal=1;startSize=26;horizontalStack=0;resizeParent=1;resizeParentMax=0;resizeLast=0;collapsible=1;marginBottom=0;whiteSpace=wrap;html=1;" vertex="1" parent="1">
          <mxGeometry x="650" y="2030" width="160" height="220" as="geometry" />
        </mxCell>
        <mxCell id="BHGopGzuXaX2ucWg6kML-81" value="&lt;div&gt;weight&lt;/div&gt;&lt;div&gt;Reeps&lt;/div&gt;&lt;div&gt;Sets&lt;/div&gt;&lt;div&gt;Complexity&lt;/div&gt;&lt;div&gt;OneRP&amp;nbsp;&lt;/div&gt;&lt;div&gt;&lt;br&gt;&lt;/div&gt;" style="text;strokeColor=none;fillColor=none;align=left;verticalAlign=top;spacingLeft=4;spacingRight=4;overflow=hidden;rotatable=0;points=[[0,0.5],[1,0.5]];portConstraint=eastwest;whiteSpace=wrap;html=1;" vertex="1" parent="BHGopGzuXaX2ucWg6kML-80">
          <mxGeometry y="26" width="160" height="104" as="geometry" />
        </mxCell>
        <mxCell id="BHGopGzuXaX2ucWg6kML-82" value="" style="line;strokeWidth=1;fillColor=none;align=left;verticalAlign=middle;spacingTop=-1;spacingLeft=3;spacingRight=3;rotatable=0;labelPosition=right;points=[];portConstraint=eastwest;strokeColor=inherit;" vertex="1" parent="BHGopGzuXaX2ucWg6kML-80">
          <mxGeometry y="130" width="160" height="30" as="geometry" />
        </mxCell>
        <mxCell id="BHGopGzuXaX2ucWg6kML-83" value="+ method(type): type" style="text;strokeColor=none;fillColor=none;align=left;verticalAlign=top;spacingLeft=4;spacingRight=4;overflow=hidden;rotatable=0;points=[[0,0.5],[1,0.5]];portConstraint=eastwest;whiteSpace=wrap;html=1;" vertex="1" parent="BHGopGzuXaX2ucWg6kML-80">
          <mxGeometry y="160" width="160" height="60" as="geometry" />
        </mxCell>
        <mxCell id="BHGopGzuXaX2ucWg6kML-84" value="InclineBenchPress" style="swimlane;fontStyle=1;align=center;verticalAlign=top;childLayout=stackLayout;horizontal=1;startSize=26;horizontalStack=0;resizeParent=1;resizeParentMax=0;resizeLast=0;collapsible=1;marginBottom=0;whiteSpace=wrap;html=1;" vertex="1" parent="1">
          <mxGeometry x="853" y="2030" width="160" height="220" as="geometry" />
        </mxCell>
        <mxCell id="BHGopGzuXaX2ucWg6kML-85" value="&lt;div&gt;weight&lt;/div&gt;&lt;div&gt;Reeps&lt;/div&gt;&lt;div&gt;Sets&lt;/div&gt;&lt;div&gt;Complexity&lt;/div&gt;&lt;div&gt;OneRP&amp;nbsp;&lt;/div&gt;&lt;div&gt;&lt;br&gt;&lt;/div&gt;" style="text;strokeColor=none;fillColor=none;align=left;verticalAlign=top;spacingLeft=4;spacingRight=4;overflow=hidden;rotatable=0;points=[[0,0.5],[1,0.5]];portConstraint=eastwest;whiteSpace=wrap;html=1;" vertex="1" parent="BHGopGzuXaX2ucWg6kML-84">
          <mxGeometry y="26" width="160" height="104" as="geometry" />
        </mxCell>
        <mxCell id="BHGopGzuXaX2ucWg6kML-86" value="" style="line;strokeWidth=1;fillColor=none;align=left;verticalAlign=middle;spacingTop=-1;spacingLeft=3;spacingRight=3;rotatable=0;labelPosition=right;points=[];portConstraint=eastwest;strokeColor=inherit;" vertex="1" parent="BHGopGzuXaX2ucWg6kML-84">
          <mxGeometry y="130" width="160" height="30" as="geometry" />
        </mxCell>
        <mxCell id="BHGopGzuXaX2ucWg6kML-87" value="+ method(type): type" style="text;strokeColor=none;fillColor=none;align=left;verticalAlign=top;spacingLeft=4;spacingRight=4;overflow=hidden;rotatable=0;points=[[0,0.5],[1,0.5]];portConstraint=eastwest;whiteSpace=wrap;html=1;" vertex="1" parent="BHGopGzuXaX2ucWg6kML-84">
          <mxGeometry y="160" width="160" height="60" as="geometry" />
        </mxCell>
        <mxCell id="BHGopGzuXaX2ucWg6kML-88" value="StiffLegsDeadlift" style="swimlane;fontStyle=1;align=center;verticalAlign=top;childLayout=stackLayout;horizontal=1;startSize=26;horizontalStack=0;resizeParent=1;resizeParentMax=0;resizeLast=0;collapsible=1;marginBottom=0;whiteSpace=wrap;html=1;" vertex="1" parent="1">
          <mxGeometry x="1050" y="2030" width="160" height="220" as="geometry" />
        </mxCell>
        <mxCell id="BHGopGzuXaX2ucWg6kML-89" value="&lt;div&gt;weight&lt;/div&gt;&lt;div&gt;Reeps&lt;/div&gt;&lt;div&gt;Sets&lt;/div&gt;&lt;div&gt;Complexity&lt;/div&gt;&lt;div&gt;OneRP&amp;nbsp;&lt;/div&gt;&lt;div&gt;&lt;br&gt;&lt;/div&gt;" style="text;strokeColor=none;fillColor=none;align=left;verticalAlign=top;spacingLeft=4;spacingRight=4;overflow=hidden;rotatable=0;points=[[0,0.5],[1,0.5]];portConstraint=eastwest;whiteSpace=wrap;html=1;" vertex="1" parent="BHGopGzuXaX2ucWg6kML-88">
          <mxGeometry y="26" width="160" height="104" as="geometry" />
        </mxCell>
        <mxCell id="BHGopGzuXaX2ucWg6kML-90" value="" style="line;strokeWidth=1;fillColor=none;align=left;verticalAlign=middle;spacingTop=-1;spacingLeft=3;spacingRight=3;rotatable=0;labelPosition=right;points=[];portConstraint=eastwest;strokeColor=inherit;" vertex="1" parent="BHGopGzuXaX2ucWg6kML-88">
          <mxGeometry y="130" width="160" height="30" as="geometry" />
        </mxCell>
        <mxCell id="BHGopGzuXaX2ucWg6kML-91" value="+ method(type): type" style="text;strokeColor=none;fillColor=none;align=left;verticalAlign=top;spacingLeft=4;spacingRight=4;overflow=hidden;rotatable=0;points=[[0,0.5],[1,0.5]];portConstraint=eastwest;whiteSpace=wrap;html=1;" vertex="1" parent="BHGopGzuXaX2ucWg6kML-88">
          <mxGeometry y="160" width="160" height="60" as="geometry" />
        </mxCell>
        <mxCell id="BHGopGzuXaX2ucWg6kML-92" value="InclineDumbellPress" style="swimlane;fontStyle=1;align=center;verticalAlign=top;childLayout=stackLayout;horizontal=1;startSize=26;horizontalStack=0;resizeParent=1;resizeParentMax=0;resizeLast=0;collapsible=1;marginBottom=0;whiteSpace=wrap;html=1;" vertex="1" parent="1">
          <mxGeometry x="40" y="2270" width="160" height="220" as="geometry" />
        </mxCell>
        <mxCell id="BHGopGzuXaX2ucWg6kML-93" value="&lt;div&gt;weight&lt;/div&gt;&lt;div&gt;Reeps&lt;/div&gt;&lt;div&gt;Sets&lt;/div&gt;&lt;div&gt;Complexity&lt;/div&gt;&lt;div&gt;OneRP&amp;nbsp;&lt;/div&gt;&lt;div&gt;&lt;br&gt;&lt;/div&gt;" style="text;strokeColor=none;fillColor=none;align=left;verticalAlign=top;spacingLeft=4;spacingRight=4;overflow=hidden;rotatable=0;points=[[0,0.5],[1,0.5]];portConstraint=eastwest;whiteSpace=wrap;html=1;" vertex="1" parent="BHGopGzuXaX2ucWg6kML-92">
          <mxGeometry y="26" width="160" height="104" as="geometry" />
        </mxCell>
        <mxCell id="BHGopGzuXaX2ucWg6kML-94" value="" style="line;strokeWidth=1;fillColor=none;align=left;verticalAlign=middle;spacingTop=-1;spacingLeft=3;spacingRight=3;rotatable=0;labelPosition=right;points=[];portConstraint=eastwest;strokeColor=inherit;" vertex="1" parent="BHGopGzuXaX2ucWg6kML-92">
          <mxGeometry y="130" width="160" height="30" as="geometry" />
        </mxCell>
        <mxCell id="BHGopGzuXaX2ucWg6kML-95" value="+ method(type): type" style="text;strokeColor=none;fillColor=none;align=left;verticalAlign=top;spacingLeft=4;spacingRight=4;overflow=hidden;rotatable=0;points=[[0,0.5],[1,0.5]];portConstraint=eastwest;whiteSpace=wrap;html=1;" vertex="1" parent="BHGopGzuXaX2ucWg6kML-92">
          <mxGeometry y="160" width="160" height="60" as="geometry" />
        </mxCell>
        <mxCell id="BHGopGzuXaX2ucWg6kML-98" value="1" style="endArrow=open;html=1;endSize=12;startArrow=diamondThin;startSize=14;startFill=0;edgeStyle=orthogonalEdgeStyle;align=left;verticalAlign=bottom;rounded=0;" edge="1" parent="1">
          <mxGeometry x="-1" y="3" relative="1" as="geometry">
            <mxPoint x="-1280" y="440" as="sourcePoint" />
            <mxPoint x="-1160" y="440" as="targetPoint" />
            <Array as="points">
              <mxPoint x="-1220" y="440" />
              <mxPoint x="-1220" y="440" />
            </Array>
          </mxGeometry>
        </mxCell>
        <mxCell id="BHGopGzuXaX2ucWg6kML-99" value="" style="shape=link;html=1;rounded=0;" edge="1" parent="1">
          <mxGeometry width="100" relative="1" as="geometry">
            <mxPoint x="-1640" y="590" as="sourcePoint" />
            <mxPoint x="-470" y="590" as="targetPoint" />
          </mxGeometry>
        </mxCell>
        <mxCell id="BHGopGzuXaX2ucWg6kML-100" value="" style="endArrow=none;html=1;edgeStyle=orthogonalEdgeStyle;rounded=0;" edge="1" parent="1">
          <mxGeometry relative="1" as="geometry">
            <mxPoint x="-1360.5" y="540" as="sourcePoint" />
            <mxPoint x="-1360.5" y="590" as="targetPoint" />
          </mxGeometry>
        </mxCell>
        <mxCell id="BHGopGzuXaX2ucWg6kML-101" value="parent" style="edgeLabel;resizable=0;html=1;align=left;verticalAlign=bottom;" connectable="0" vertex="1" parent="BHGopGzuXaX2ucWg6kML-100">
          <mxGeometry x="-1" relative="1" as="geometry" />
        </mxCell>
        <mxCell id="BHGopGzuXaX2ucWg6kML-102" value="child" style="edgeLabel;resizable=0;html=1;align=right;verticalAlign=bottom;" connectable="0" vertex="1" parent="BHGopGzuXaX2ucWg6kML-100">
          <mxGeometry x="1" relative="1" as="geometry" />
        </mxCell>
      </root>
    </mxGraphModel>
  </diagram>
</mxfile>
